<svg width="20" height="20" viewBox="0 0 20 20" fill="none" xmlns="http://www.w3.org/2000/svg">
<path d="M18.4702 6.79707L14.3844 5.24845C14.598 4.65426 14.663 4.01861 14.5739 3.39478C14.4848 2.77094 14.2441 2.17711 13.8721 1.66306C13.5001 1.14902 13.0075 0.729736 12.4357 0.440374C11.864 0.151011 11.2296 0 10.5859 0C9.94223 0 9.3079 0.151011 8.73613 0.440374C8.16436 0.729736 7.67182 1.14902 7.29979 1.66306C6.92776 2.17711 6.68709 2.77094 6.59796 3.39478C6.50883 4.01861 6.57383 4.65426 6.78751 5.24845L2.70171 6.79707C2.61924 6.82856 2.5484 6.88367 2.49847 6.95521C2.44854 7.02675 2.42184 7.11137 2.42188 7.198V16.4721C2.42185 16.5588 2.44863 16.6436 2.49871 16.7152C2.54878 16.7867 2.61981 16.8419 2.70247 16.8732L10.4269 19.8033C10.4777 19.8225 10.5316 19.8323 10.5859 19.8323C10.6398 19.8313 10.6929 19.8204 10.7427 19.8004L10.7449 19.8033L18.4702 16.8732C18.5527 16.8417 18.6235 16.7866 18.6735 16.715C18.7234 16.6434 18.7501 16.5587 18.75 16.4721V7.198C18.75 7.11137 18.7233 7.02675 18.6734 6.95521C18.6235 6.88367 18.5526 6.82856 18.4702 6.79707ZM17.0948 7.198L15.6688 7.73879L13.3054 6.84894C13.5747 6.60652 13.8091 6.32951 14.0023 6.02547L17.0948 7.198ZM12.4408 7.44529L14.4504 8.20166L13.3157 8.63183L11.2343 7.83613C11.6552 7.76961 12.0625 7.63766 12.4408 7.44529ZM13.8086 9.3673L15.2849 8.80734V10.5996L15.038 10.442C14.9516 10.387 14.8482 10.3634 14.7459 10.3753C14.6436 10.3873 14.5488 10.434 14.4781 10.5074L13.8086 11.2026V9.3673ZM10.5859 0.871239C11.2085 0.871239 11.817 1.05188 12.3346 1.39032C12.8522 1.72876 13.2557 2.2098 13.4939 2.7726C13.7321 3.33541 13.7945 3.9547 13.673 4.55217C13.5516 5.14965 13.2518 5.69846 12.8116 6.12921C12.3714 6.55996 11.8106 6.85331 11.2 6.97215C10.5894 7.091 9.95656 7.03 9.38142 6.79688C8.80628 6.56376 8.31469 6.16898 7.96884 5.66247C7.62298 5.15596 7.43838 4.56046 7.43838 3.95129C7.43931 3.13469 7.77122 2.35179 8.3613 1.77437C8.95138 1.19695 9.75144 0.87215 10.5859 0.871239ZM7.42079 6.37747L6.83248 6.15255L7.16934 6.02473C7.24652 6.14694 7.33047 6.26494 7.42079 6.37821V6.37747ZM5.61993 6.61247L12.1019 9.09199L10.5859 9.66695L4.07704 7.198L5.61993 6.61247ZM3.30108 16.1773V7.8263L10.1463 10.4231V18.7741L3.30108 16.1773ZM11.0255 18.7741V10.4231L12.9294 9.70038V12.2866C12.9294 12.3728 12.9559 12.4569 13.0054 12.5282C13.0549 12.5994 13.1251 12.6545 13.207 12.6863C13.2585 12.7065 13.3135 12.7168 13.369 12.7168C13.429 12.7168 13.4883 12.7048 13.5433 12.6816C13.5983 12.6583 13.6479 12.6243 13.689 12.5816L14.8659 11.3591L15.4846 11.7524C15.5509 11.7944 15.6276 11.8181 15.7065 11.821C15.7854 11.824 15.8636 11.8061 15.933 11.7692C16.0024 11.7323 16.0604 11.6779 16.1008 11.6115C16.1413 11.5451 16.1627 11.4693 16.1629 11.3921V8.47377L17.8708 7.8263V16.1773L11.0255 18.7741Z" fill="#303136"/>
<path d="M9.80295 5.21725C9.88403 5.2844 9.98722 5.32054 10.0934 5.31901C10.1996 5.31747 10.3017 5.27836 10.3807 5.20889L12.5127 3.33382C12.5578 3.29669 12.5949 3.25105 12.6217 3.1996C12.6485 3.14815 12.6644 3.09196 12.6685 3.03436C12.6726 2.97677 12.6648 2.91896 12.6456 2.86437C12.6264 2.80978 12.5962 2.75953 12.5567 2.71662C12.5172 2.67371 12.4693 2.63901 12.4159 2.61459C12.3624 2.59017 12.3045 2.57653 12.2455 2.57449C12.1866 2.57244 12.1278 2.58203 12.0727 2.60268C12.0176 2.62334 11.9673 2.65463 11.9248 2.6947L10.078 4.31929L9.23699 3.62363C9.14795 3.54997 9.03265 3.51393 8.91646 3.52345C8.80026 3.53296 8.69269 3.58726 8.61741 3.67439C8.54212 3.76153 8.50529 3.87435 8.51502 3.98806C8.52475 4.10176 8.58024 4.20703 8.66928 4.2807L9.80295 5.21725Z" fill="#303136"/>
</svg>
