<svg width="30" height="37" viewBox="0 0 30 37" fill="none" xmlns="http://www.w3.org/2000/svg">
<path d="M14.5007 0.334926C10.6266 0.334926 6.91106 1.87393 4.17161 4.61339C1.43215 7.35284 -0.106857 11.0683 -0.106857 14.9425V36.855H7.19582V27.5917C9.13653 28.7125 11.3091 29.3719 13.5454 29.5187C15.7817 29.6655 18.0219 29.2959 20.0925 28.4384C22.1631 27.5809 24.0087 26.2586 25.4864 24.5737C26.9642 22.8888 28.0345 20.8865 28.6146 18.7217C29.1947 16.5569 29.2689 14.2877 28.8316 12.0897C28.3944 9.89161 27.4573 7.82361 26.0928 6.04568C24.7284 4.26775 22.9733 2.82755 20.9631 1.83651C18.953 0.845466 16.7419 0.330155 14.5007 0.330444V0.334926ZM14.5007 22.2474C13.0559 22.2598 11.6399 21.8434 10.4318 21.051C9.22363 20.2585 8.27761 19.1256 7.71337 17.7955C7.14913 16.4654 6.99201 14.9978 7.26188 13.5784C7.53175 12.1589 8.21649 10.8514 9.22949 9.82119C10.2425 8.79094 11.5383 8.08424 12.9529 7.79046C14.3676 7.49668 15.8376 7.62902 17.1771 8.17074C18.5165 8.71245 19.6652 9.63922 20.478 10.8338C21.2907 12.0284 21.7309 13.4372 21.7429 14.882V14.9425C21.747 15.8977 21.563 16.8443 21.2013 17.7284C20.8395 18.6124 20.3072 19.4166 19.6347 20.0949C18.9622 20.7732 18.1627 21.3124 17.2818 21.6818C16.4009 22.0511 15.4559 22.2433 14.5007 22.2474Z" fill="#D6073D"/>
</svg>
